<svg width="17" height="16" fill="none" xmlns="http://www.w3.org/2000/svg"><path d="M16.293 12.754l-.081-.24c-.193-.561-.826-1.146-1.407-1.3l-2.15-.574c-.583-.155-1.415.053-1.841.47l-.779.761c-2.828-.747-5.046-2.916-5.809-5.68l.778-.761c.427-.417.64-1.23.482-1.8l-.587-2.103C4.741.957 4.142.339 3.57.153L3.324.072c-.574-.187-1.392.002-1.818.42L.342 1.63C.134 1.833 0 2.411 0 2.413a13.29 13.29 0 0 0 4.023 9.652c2.608 2.55 6.155 3.965 9.84 3.934.02 0 .628-.127.836-.33l1.164-1.138c.427-.417.62-1.217.429-1.777z" fill="#292F4C" opacity=".3"/></svg>