<svg width="293" height="27" fill="none" xmlns="http://www.w3.org/2000/svg"><path fill-rule="evenodd" clip-rule="evenodd" d="M245 1.5a1.5 1.5 0 0 1 3 0v24a1.5 1.5 0 0 1-3 0v-24zm5 3a1.5 1.5 0 0 1 3 0v19a1.5 1.5 0 0 1-3 0v-19zm26.5 5.5a1.5 1.5 0 0 0-1.5 1.5v4a1.5 1.5 0 0 0 3 0v-4a1.5 1.5 0 0 0-1.5-1.5zm13.5 3.5a1.5 1.5 0 1 1 3 0 1.5 1.5 0 0 1-3 0zm-5 0a1.5 1.5 0 1 1 3 0 1.5 1.5 0 0 1-3 0zM256.5 6a1.5 1.5 0 0 0-1.5 1.5v12a1.5 1.5 0 0 0 3 0v-12a1.5 1.5 0 0 0-1.5-1.5zm3.5 2.5a1.5 1.5 0 0 1 3 0v11a1.5 1.5 0 0 1-3 0v-11zm6.5-.5a1.5 1.5 0 0 0-1.5 1.5v9a1.5 1.5 0 0 0 3 0v-9a1.5 1.5 0 0 0-1.5-1.5zm3.5 2.5a1.5 1.5 0 0 1 3 0v6a1.5 1.5 0 0 1-3 0v-6zm11.5.5a1.5 1.5 0 0 0-1.5 1.5v2a1.5 1.5 0 0 0 3 0v-2a1.5 1.5 0 0 0-1.5-1.5zm-40-4a1.5 1.5 0 0 0-1.5 1.5v10a1.5 1.5 0 0 0 3 0v-10a1.5 1.5 0 0 0-1.5-1.5zm-6.5.5a1.5 1.5 0 0 1 3 0v12a1.5 1.5 0 0 1-3 0v-12zM231.5 6a1.5 1.5 0 0 0-1.5 1.5v12a1.5 1.5 0 0 0 3 0v-12a1.5 1.5 0 0 0-1.5-1.5zM225 9.5a1.5 1.5 0 0 1 3 0v9a1.5 1.5 0 0 1-3 0v-9zM221.5 7a1.5 1.5 0 0 0-1.5 1.5v10a1.5 1.5 0 0 0 3 0v-10a1.5 1.5 0 0 0-1.5-1.5zM215 5.5a1.5 1.5 0 0 1 3 0v16a1.5 1.5 0 0 1-3 0v-16zm-3.5.5a1.5 1.5 0 0 0-1.5 1.5v12a1.5 1.5 0 0 0 3 0v-12a1.5 1.5 0 0 0-1.5-1.5zm-6.5 4.5a1.5 1.5 0 0 1 3 0v7a1.5 1.5 0 0 1-3 0v-7zM201.5 7a1.5 1.5 0 0 0-1.5 1.5v10a1.5 1.5 0 0 0 3 0v-10a1.5 1.5 0 0 0-1.5-1.5zm-6.5.5a1.5 1.5 0 0 1 3 0v12a1.5 1.5 0 0 1-3 0v-12zm-3.5-.5a1.5 1.5 0 0 0-1.5 1.5v11a1.5 1.5 0 0 0 3 0v-11a1.5 1.5 0 0 0-1.5-1.5zM185 9.5a1.5 1.5 0 0 1 3 0v9a1.5 1.5 0 0 1-3 0v-9zm-3.5-.5a1.5 1.5 0 0 0-1.5 1.5v6a1.5 1.5 0 0 0 3 0v-6a1.5 1.5 0 0 0-1.5-1.5zm-6.5-.5a1.5 1.5 0 0 1 3 0v11a1.5 1.5 0 0 1-3 0v-11zM171.5 1a1.5 1.5 0 0 0-1.5 1.5v22a1.5 1.5 0 0 0 3 0v-22a1.5 1.5 0 0 0-1.5-1.5zm-6.5 9.5a1.5 1.5 0 0 1 3 0v6a1.5 1.5 0 0 1-3 0v-6zM161.5 5a1.5 1.5 0 0 0-1.5 1.5v15a1.5 1.5 0 0 0 3 0v-15a1.5 1.5 0 0 0-1.5-1.5zM68 4.5a1.5 1.5 0 0 0-3 0v19a1.5 1.5 0 0 0 3 0v-19zm3.5.5A1.5 1.5 0 0 1 73 6.5v15a1.5 1.5 0 0 1-3 0v-15A1.5 1.5 0 0 1 71.5 5zM78 8.5a1.5 1.5 0 0 0-3 0v10a1.5 1.5 0 0 0 3 0v-10zM81.5 6A1.5 1.5 0 0 1 83 7.5v12a1.5 1.5 0 0 1-3 0v-12A1.5 1.5 0 0 1 81.5 6zM88 7.5a1.5 1.5 0 0 0-3 0v12a1.5 1.5 0 0 0 3 0v-12zM91.5 3A1.5 1.5 0 0 1 93 4.5v18a1.5 1.5 0 0 1-3 0v-18A1.5 1.5 0 0 1 91.5 3zM98 8.5a1.5 1.5 0 0 0-3 0v10a1.5 1.5 0 0 0 3 0v-10zm3.5-4.5a1.5 1.5 0 0 1 1.5 1.5v16a1.5 1.5 0 0 1-3 0v-16a1.5 1.5 0 0 1 1.5-1.5zm6.5-2.5a1.5 1.5 0 0 0-3 0v24a1.5 1.5 0 0 0 3 0v-24zm3.5 1.5a1.5 1.5 0 0 1 1.5 1.5v18a1.5 1.5 0 0 1-3 0v-18a1.5 1.5 0 0 1 1.5-1.5zm6.5 1.5a1.5 1.5 0 0 0-3 0v18a1.5 1.5 0 0 0 3 0v-18zm3.5 1.5a1.5 1.5 0 0 1 1.5 1.5v12a1.5 1.5 0 0 1-3 0v-12a1.5 1.5 0 0 1 1.5-1.5zm6.5 2.5a1.5 1.5 0 0 0-3 0v11a1.5 1.5 0 0 0 3 0v-11zm3.5-.5a1.5 1.5 0 0 1 1.5 1.5v9a1.5 1.5 0 0 1-3 0v-9a1.5 1.5 0 0 1 1.5-1.5zm6.5 2.5a1.5 1.5 0 0 0-3 0v6a1.5 1.5 0 0 0 3 0v-6zm3.5-3.5a1.5 1.5 0 0 1 1.5 1.5v11a1.5 1.5 0 0 1-3 0v-11a1.5 1.5 0 0 1 1.5-1.5zm6.5-1.5a1.5 1.5 0 0 0-3 0v16a1.5 1.5 0 0 0 3 0v-16zm3.5 3.5a1.5 1.5 0 0 1 1.5 1.5v6a1.5 1.5 0 0 1-3 0v-6a1.5 1.5 0 0 1 1.5-1.5zm6.5-2.5a1.5 1.5 0 0 0-3 0v15a1.5 1.5 0 0 0 3 0v-15zM61.5 3A1.5 1.5 0 0 0 60 4.5v19a1.5 1.5 0 0 0 3 0v-19A1.5 1.5 0 0 0 61.5 3zM55 1.5a1.5 1.5 0 0 1 3 0v24a1.5 1.5 0 0 1-3 0v-24zM51.5 7A1.5 1.5 0 0 0 50 8.5v10a1.5 1.5 0 0 0 3 0v-10A1.5 1.5 0 0 0 51.5 7zm-6.5.5a1.5 1.5 0 0 1 3 0v12a1.5 1.5 0 0 1-3 0v-12zM41.5 6A1.5 1.5 0 0 0 40 7.5v12a1.5 1.5 0 0 0 3 0v-12A1.5 1.5 0 0 0 41.5 6zM35 9.5a1.5 1.5 0 0 1 3 0v9a1.5 1.5 0 0 1-3 0v-9zM16.5 13a1.5 1.5 0 1 0 0 3 1.5 1.5 0 0 0 0-3zM10 14.5a1.5 1.5 0 1 1 3 0 1.5 1.5 0 0 1-3 0zM6.5 13a1.5 1.5 0 1 0 0 3 1.5 1.5 0 0 0 0-3zM0 14.5a1.5 1.5 0 1 1 3 0 1.5 1.5 0 0 1-3 0zM26.5 11a1.5 1.5 0 0 0-1.5 1.5v4a1.5 1.5 0 0 0 3 0v-4a1.5 1.5 0 0 0-1.5-1.5zm3.5.5a1.5 1.5 0 0 1 3 0v6a1.5 1.5 0 0 1-3 0v-6zm-8.5.5a1.5 1.5 0 0 0-1.5 1.5v2a1.5 1.5 0 0 0 3 0v-2a1.5 1.5 0 0 0-1.5-1.5z" fill="#F44A4A"/></svg>