<svg width="24" height="20" fill="none" xmlns="http://www.w3.org/2000/svg"><path opacity=".3" d="M23.936 9.61l-3-8.889C20.79.288 20.417 0 20 0h-3c-.553 0-1 .498-1 1.111s.447 1.111 1 1.111h2.306l2.25 6.667H17c-.553 0-1 .498-1 1.111v2.222H8V10c0-.613-.447-1.111-1-1.111H2.443l2.25-6.667H17c.553 0 .415-.498.415-1.11C17.415.497 17.553 0 17 0H4c-.417 0-.79.288-.937.721l-3 8.889a1.208 1.208 0 0 0-.056.352L0 18.89C0 19.502.447 20 1 20h22c.553 0 1-.498 1-1.111V10a1.506 1.506 0 0 0-.064-.39z" fill="#fff"/></svg>
