<svg width="24" height="27" fill="none" xmlns="http://www.w3.org/2000/svg"><path opacity=".3" fill-rule="evenodd" clip-rule="evenodd" d="M21.858 17.333c.152.288.443.555.75.838l.005.004c.736.678 2.096 1.93.937 4.188a1.153 1.153 0 0 1-1.027.637H1.477c-.43 0-.823-.24-1.027-.637-1.159-2.259.201-3.51.937-4.188l.005-.004c.307-.283.598-.55.78-.892.542-.911.738-3.098.855-4.405.017-.192.034-.376.056-.595.261-1.92.907-4.678 2.506-6.95 1.126-1.6 2.53-2.667 4.178-3.173C9.863.95 10.827 0 12 0c1.172 0 2.137.95 2.233 2.155 1.648.507 3.052 1.574 4.178 3.174 1.599 2.272 2.245 5.03 2.511 6.995.017.174.034.358.05.55.118 1.307.313 3.493.886 4.459zM9.657 24h4.783c.161 0 .306.052.408.154a.567.567 0 0 1 .147.474C14.819 25.98 13.53 27 11.999 27c-1.516 0-2.802-1.006-2.992-2.341a.55.55 0 0 1 .148-.479c.084-.084.239-.18.502-.18z" fill="#fff"/></svg>