<svg width="24" height="24" fill="none" xmlns="http://www.w3.org/2000/svg"><path opacity=".3" fill-rule="evenodd" clip-rule="evenodd" d="M21.169 13.176c.05-.384.086-.768.086-1.176 0-.408-.037-.792-.086-1.176l2.603-1.98a.594.594 0 0 0 .148-.768l-2.467-4.152c-.148-.264-.482-.36-.753-.264l-3.072 1.2a9.076 9.076 0 0 0-2.085-1.176l-.468-3.18A.596.596 0 0 0 14.47 0H9.535a.597.597 0 0 0-.604.504l-.469 3.18c-.752.3-1.443.708-2.085 1.176l-3.072-1.2a.61.61 0 0 0-.752.264L.086 8.076a.581.581 0 0 0 .148.768l2.603 1.98c-.05.384-.087.78-.087 1.176 0 .396.037.792.087 1.176l-2.603 1.98a.594.594 0 0 0-.148.768l2.467 4.152c.148.264.481.36.752.264l3.072-1.2c.642.48 1.333.876 2.085 1.176l.469 3.18a.597.597 0 0 0 .604.504h4.935a.596.596 0 0 0 .604-.504l.47-3.18a9.544 9.544 0 0 0 2.084-1.176l3.072 1.2a.61.61 0 0 0 .753-.264l2.467-4.152a.594.594 0 0 0-.148-.768l-2.603-1.98zM12.003 16.2c-2.381 0-4.318-1.884-4.318-4.2 0-2.316 1.937-4.2 4.318-4.2 2.38 0 4.317 1.884 4.317 4.2 0 2.316-1.936 4.2-4.317 4.2z" fill="#fff"/></svg>