<svg width="26" height="24" fill="none" xmlns="http://www.w3.org/2000/svg"><path opacity=".3" fill-rule="evenodd" clip-rule="evenodd" d="M7.65 5.853A3.358 3.358 0 0 1 5.2 6.857a3.36 3.36 0 0 1-2.451-1.004c-.677-.67-1.016-1.478-1.016-2.424 0-.947.339-1.755 1.016-2.424A3.359 3.359 0 0 1 5.2 0c.957 0 1.774.335 2.45 1.005.678.67 1.017 1.477 1.017 2.424 0 .946-.339 1.754-1.016 2.424zM13 13.714c-1.436 0-2.661-.502-3.677-1.506C8.308 11.203 7.8 9.991 7.8 8.572c0-1.42.508-2.632 1.523-3.637C10.34 3.931 11.564 3.43 13 3.43s2.661.502 3.677 1.506C17.692 5.94 18.2 7.152 18.2 8.572s-.508 2.631-1.523 3.636c-1.016 1.004-2.241 1.506-3.677 1.506zm7.8-6.857c.957 0 1.774-.334 2.451-1.004a3.285 3.285 0 0 0 1.016-2.424c0-.947-.339-1.755-1.016-2.424A3.359 3.359 0 0 0 20.801 0c-.958 0-1.775.335-2.452 1.005-.677.67-1.015 1.477-1.015 2.424 0 .946.338 1.754 1.015 2.424A3.359 3.359 0 0 0 20.8 6.857zm2.932.282c.338-.188.535-.282.589-.282 1.12 0 1.68 1.576 1.679 4.728 0 .696-.253 1.226-.758 1.587-.506.362-1.129.543-1.869.543h-1.815c-.93-1.099-2.126-1.67-3.588-1.715.731-1.044 1.097-2.187 1.097-3.428 0-.26-.023-.554-.068-.884a5.492 5.492 0 0 0 1.801.308c.533 0 1.07-.096 1.612-.288a8.942 8.942 0 0 0 1.32-.57zm-1.435 10.546a11.235 11.235 0 0 0-.36-1.453 6.868 6.868 0 0 0-.581-1.306 4.728 4.728 0 0 0-.84-1.084 3.544 3.544 0 0 0-1.158-.717 4.106 4.106 0 0 0-1.51-.268c-.09 0-.284.096-.582.288-.298.192-.627.407-.989.643-.36.236-.843.45-1.449.643a6.015 6.015 0 0 1-1.828.288 6.012 6.012 0 0 1-1.828-.288c-.605-.192-1.088-.407-1.449-.643-.361-.236-.69-.451-.988-.643-.298-.192-.492-.288-.583-.288-.55 0-1.054.09-1.51.268a3.538 3.538 0 0 0-1.158.717 4.716 4.716 0 0 0-.84 1.084c-.243.425-.437.86-.581 1.306-.145.447-.264.931-.36 1.453a13.476 13.476 0 0 0-.189 1.46c-.032.451-.047.913-.047 1.387 0 1.07.33 1.917.988 2.537.66.62 1.535.931 2.627.931h11.836c1.092 0 1.968-.31 2.627-.93.66-.621.989-1.467.989-2.538 0-.474-.016-.936-.047-1.387a13.698 13.698 0 0 0-.19-1.46zM6.933 8.572c0 1.24.366 2.384 1.097 3.428-1.462.045-2.658.616-3.588 1.714H2.627c-.74 0-1.363-.18-1.869-.542-.505-.361-.758-.89-.758-1.587 0-3.152.56-4.728 1.68-4.728.053 0 .25.094.588.282.339.187.78.377 1.32.569a4.803 4.803 0 0 0 1.612.288c.605 0 1.205-.103 1.801-.308-.045.33-.068.625-.068.884z" fill="#fff"/></svg>