<svg width="18" height="26" fill="none" xmlns="http://www.w3.org/2000/svg"><path opacity=".2" fill-rule="evenodd" clip-rule="evenodd" d="M1.316 0h15.368C17.412 0 18 .599 18 1.34v17.627c0 .61-.291 1.177-.78 1.527l-7.325 5.22a1.542 1.542 0 0 1-1.79 0L.78 20.494A1.873 1.873 0 0 1 0 18.967V1.341C0 .599.588 0 1.316 0zm10.707 12.232l2.502-2.168c.473-.408.224-1.198-.396-1.245l-3.261-.244-1.233-3.111a.683.683 0 0 0-1.275 0l-1.233 3.11-3.262.245c-.619.042-.863.832-.395 1.24l2.502 2.167-.78 3.26c-.146.614.505 1.102 1.03.768L9 14.484l2.773 1.775c.525.334 1.176-.153 1.03-.768l-.78-3.26z" fill="#292F4C"/></svg>